<svg width="512" height="512" viewBox="0 0 512 512" fill="none" xmlns="http://www.w3.org/2000/svg">
  <!-- Background -->
  <rect width="512" height="512" rx="128" fill="#0EA5E9"/>
  
  <!-- Chart Icon -->
  <g transform="translate(128, 128)">
    <!-- Candlestick 1 -->
    <rect x="20" y="80" width="40" height="120" rx="4" fill="#10B981"/>
    <line x1="40" y1="60" x2="40" y2="80" stroke="#10B981" stroke-width="8"/>
    <line x1="40" y1="200" x2="40" y2="220" stroke="#10B981" stroke-width="8"/>
    
    <!-- Candlestick 2 -->
    <rect x="100" y="40" width="40" height="80" rx="4" fill="#EF4444"/>
    <line x1="120" y1="20" x2="120" y2="40" stroke="#EF4444" stroke-width="8"/>
    <line x1="120" y1="120" x2="120" y2="160" stroke="#EF4444" stroke-width="8"/>
    
    <!-- Candlestick 3 -->
    <rect x="180" y="60" width="40" height="140" rx="4" fill="#10B981"/>
    <line x1="200" y1="40" x2="200" y2="60" stroke="#10B981" stroke-width="8"/>
    <line x1="200" y1="200" x2="200" y2="240" stroke="#10B981" stroke-width="8"/>
  </g>
  
  <!-- Prediction Arrow -->
  <path d="M380 200 L440 150 L440 185 L480 185 L480 215 L440 215 L440 250 Z" fill="white" opacity="0.9"/>
</svg>